<svg width="150" height="150" viewBox="0 0 150 150" fill="none" xmlns="http://www.w3.org/2000/svg">
<path d="M15.7789 97.846L41.271 97.846L28.5249 135.846L15.7789 97.846Z" fill="#5D2D7D"/>
<path d="M29.1453 57.9422L54.6373 57.9422L41.8913 95.9419L29.1453 57.9422Z" fill="#E86E67"/>
<path d="M28.4544 57.8392L41.2005 95.8389H15.7084L28.4544 57.8392Z" fill="#E97855"/>
<path d="M28.4544 57.8392L41.2005 95.8389H15.7084L28.4544 57.8392Z" fill="#E97855"/>
<path d="M42.051 18.9999L67.543 18.9998L54.797 56.9996L42.051 18.9999Z" fill="#4E256B"/>
<path d="M41.2099 18.9433L53.9559 56.943H28.4639L41.2099 18.9433Z" fill="#5D2D7D"/>
<path d="M55.3829 57.9422L80.8749 57.9422L68.1289 95.9419L55.3829 57.9422Z" fill="#DEC1B1"/>
<path d="M68.1915 18.75L80.9376 56.7497H55.4455L68.1915 18.75Z" fill="#D12156"/>
<path d="M81.5579 58.1731L94.3039 96.1728L68.8119 96.1728L81.5579 58.1731Z" fill="#E97855"/>
<path d="M94.9242 97.5962L107.67 135.596H82.1782L94.9242 97.5962Z" fill="#5D2D7D"/>
<path d="M95.4819 97.3653L120.974 97.3652L108.228 135.365L95.4819 97.3653Z" fill="#D12157"/>
<path d="M108.848 57.9422L134.34 57.9422L121.594 95.9419L108.848 57.9422Z" fill="#DEC1B1"/>
<path d="M122.215 18.5191L147.707 18.5191L134.961 56.5188L122.215 18.5191Z" fill="#5D2D7D"/>
<path d="M121.162 18.75L133.908 56.7497H108.416L121.162 18.75Z" fill="#4E256B"/>
<path d="M68.7492 97.3653L94.2413 97.3652L81.4952 135.365L68.7492 97.3653Z" fill="#5D2D7D"/>
<path d="M107.796 57.6923L120.542 95.692H95.0495L107.796 57.6923Z" fill="#E86E67"/>
<path d="M14.7178 98.3204L27.4638 136.32H1.97182L14.7178 98.3204Z" fill="#5D2D7D"/>
</svg>
